<svg width="100" height="100" viewBox="0 0 100 100" fill="none" xmlns="http://www.w3.org/2000/svg">
<path fill-rule="evenodd" clip-rule="evenodd" d="M99.9835 49.9835C99.9835 77.5886 77.6051 99.9669 50 99.9669C22.3949 99.9669 0.0165405 77.5886 0.0165405 49.9835C0.0165405 22.3784 22.3949 0 50 0C77.6051 0 99.9835 22.3784 99.9835 49.9835ZM50 90.4463C72.347 90.4463 90.4628 72.3305 90.4628 49.9835C90.4628 27.6365 72.347 9.52067 50 9.52067C27.653 9.52067 9.53719 27.6365 9.53719 49.9835C9.53719 72.3305 27.653 90.4463 50 90.4463ZM50 94.4132C74.5379 94.4132 94.4298 74.5214 94.4298 49.9835C94.4298 25.4456 74.5379 5.55373 50 5.55373C25.4621 5.55373 5.57025 25.4456 5.57025 49.9835C5.57025 74.5214 25.4621 94.4132 50 94.4132ZM42.0366 31.9462L29.2481 26.2363C28.8889 26.0328 28.5085 25.8623 28.1111 25.7287L27.8492 25.6117V25.6468C27.2688 25.4786 26.6552 25.3884 26.0206 25.3884C22.3988 25.3884 19.4628 28.3244 19.4628 31.9462C19.4628 35.568 22.3988 38.504 26.0206 38.504C26.6552 38.504 27.2688 38.4138 27.8492 38.2456V38.2807L28.1116 38.1635C28.5086 38.0301 28.8887 37.8596 29.2477 37.6563L42.0366 31.9462ZM57.17 67.2573L69.9588 61.5472C70.3179 61.3439 70.698 61.1734 71.0952 61.0399L71.3574 60.9228V60.9578C71.9378 60.7896 72.5514 60.6995 73.186 60.6995C76.8078 60.6995 79.7438 63.6355 79.7438 67.2573C79.7438 70.879 76.8078 73.815 73.186 73.815C72.5514 73.815 71.9379 73.7249 71.3574 73.5567V73.5917L71.0952 73.4747C70.6981 73.3412 70.3179 73.1707 69.9588 72.9673L57.17 67.2573ZM23.12 69.6534L64.3183 28.455C67.2733 25.5001 72.0642 25.5001 75.0192 28.455L76.0893 29.5251L34.891 70.7234C31.936 73.6784 27.1451 73.6784 24.1901 70.7234L23.12 69.6534Z" fill="white"/>
</svg>
